<svg viewBox="0 0 1000 1000" xmlns="http://www.w3.org/2000/svg"><defs><radialGradient id="b" r="100%" cx="43%" cy="106%"><stop offset="0%" stop-color="#daca22"/><stop offset="100%" stop-color="#c1a423"/></radialGradient><clipPath id="a"><path fill="currentColor" d="M898 658.5q-20 158.5-178.5 174t-292 20q-133.5 4.5-253-93T71 506q16-156 115.5-266.5T433.5 84q147.5-45 270 48.5T872 363q46 137 26 295.5Z"/></clipPath></defs><g clip-path="url(#a)"><path fill="url(#b)" d="M898 658.5q-20 158.5-178.5 174t-292 20q-133.5 4.5-253-93T71 506q16-156 115.5-266.5T433.5 84q147.5-45 270 48.5T872 363q46 137 26 295.5Z"/></g></svg>